<svg width="702" height="140" viewBox="0 0 702 140" fill="none" xmlns="http://www.w3.org/2000/svg"><g clip-path="url(#a)"><path d="M693.125 104.962c-4.62 0-8.307-1.346-11.05-4.036-2.748-2.724-4.12-6.524-4.12-11.4V37.315h10.899v50.092c0 2.758.556 4.809 1.658 6.154 1.107 1.312 2.748 1.968 4.923 1.968.838 0 1.743-.101 2.715-.303 1.006-.236 2.124-.588 3.367-1.06v9.333c-1.574.538-3.002.908-4.272 1.11-1.27.235-2.647.353-4.12.353zm-23.713-44.09v-9.18h31.902v9.18h-31.902zM643.462 104.962c-7.739 0-14.034-2.556-18.89-7.668-4.822-5.145-7.234-11.737-7.234-19.775 0-7.936 2.395-14.494 7.183-19.673 4.823-5.179 11.017-7.768 18.587-7.768 7.335 0 13.299 2.438 17.885 7.314 4.62 4.876 6.936 11.25 6.936 19.118 0 .74-.034 1.346-.102 1.816a47.646 47.646 0 0 1-.202 1.918h-44.509v-8.576h33.858c-.365-3.531-1.776-6.474-4.221-8.828-2.411-2.354-5.643-3.531-9.695-3.531-4.418 0-8.021 1.614-10.803 4.843-2.743 3.228-4.12 7.6-4.12 13.115 0 5.718 1.54 10.274 4.626 13.671 3.08 3.363 6.998 5.044 11.753 5.044 3.147 0 5.879-.672 8.189-2.017 2.343-1.379 4.507-3.582 6.48-6.609l7.537 4.944c-2.445 4.237-5.559 7.416-9.341 9.534-3.788 2.085-8.425 3.128-13.917 3.128zM589.073 104.962c-7.739 0-14.034-2.556-18.891-7.668-4.822-5.145-7.233-11.737-7.233-19.775 0-7.936 2.394-14.494 7.183-19.673 4.822-5.179 11.022-7.768 18.587-7.768 7.335 0 13.298 2.438 17.89 7.314 4.62 4.876 6.93 11.25 6.93 19.118 0 .74-.034 1.346-.101 1.816a48.05 48.05 0 0 1-.203 1.918h-44.508v-8.576h33.858c-.366-3.531-1.771-6.474-4.216-8.828-2.411-2.354-5.643-3.531-9.701-3.531-4.417 0-8.02 1.614-10.797 4.843-2.748 3.228-4.119 7.6-4.119 13.115 0 5.718 1.54 10.274 4.62 13.671 3.08 3.363 7.003 5.044 11.758 5.044 3.147 0 5.873-.672 8.189-2.017 2.343-1.379 4.502-3.582 6.48-6.609l7.537 4.944c-2.45 4.237-5.564 7.416-9.347 9.534-3.782 2.085-8.425 3.128-13.916 3.128zM482.159 103.297V31.06h14.62l22.306 56.75h.351l22.206-56.75h14.67v72.237h-10.751V60.923l.351-12.964h-.301l-22.005 55.338h-8.742L492.86 47.959h-.302l.352 12.964v42.374h-10.751zM172.066 104.962c-6.899-.068-13.196-1.783-18.889-5.146-5.661-3.396-10.132-7.987-13.414-13.771-3.249-5.784-4.873-12.14-4.873-19.068 0-7.03 1.624-13.402 4.873-19.12 3.248-5.716 7.72-10.206 13.414-13.468 5.693-3.296 12.023-4.944 18.99-4.944 5.426 0 10.399.909 14.921 2.725 4.521 1.816 8.373 4.607 11.554 8.373l-7.284 7.668c-2.847-2.926-5.778-5.028-8.792-6.306-2.98-1.278-6.397-1.916-10.248-1.916-4.89 0-9.311 1.11-13.264 3.329-3.952 2.22-7.083 5.398-9.394 9.534-2.278 4.103-3.416 8.862-3.416 14.276 0 5.28 1.138 10.005 3.416 14.175 2.277 4.137 5.392 7.365 9.344 9.685 3.952 2.321 8.39 3.481 13.314 3.481 4.387 0 8.306-.773 11.755-2.32 3.484-1.581 6.297-3.935 8.44-7.063 2.144-3.127 3.433-6.928 3.869-11.4h-24.466V63.244h34.865c.335 2.22.503 4.237.503 6.053 0 7.062-1.457 13.318-4.371 18.766-2.914 5.414-7.051 9.601-12.409 12.561-5.326 2.959-11.472 4.405-18.438 4.338zm67.521 0c-5.158 0-9.796-1.194-13.916-3.582-4.086-2.388-7.284-5.667-9.596-9.837-2.277-4.204-3.416-8.928-3.416-14.175 0-5.38 1.173-10.14 3.517-14.276 2.378-4.17 5.61-7.398 9.696-9.685 4.086-2.287 8.658-3.43 13.715-3.43 5.125 0 9.73 1.16 13.816 3.48 4.12 2.32 7.351 5.566 9.696 9.736 2.345 4.17 3.517 8.895 3.517 14.175 0 5.247-1.155 9.971-3.467 14.175-2.311 4.204-5.526 7.5-9.646 9.888-4.086 2.354-8.724 3.531-13.916 3.531zm0-9.585c3.182 0 5.996-.79 8.44-2.371 2.479-1.614 4.388-3.783 5.728-6.507 1.373-2.758 2.06-5.802 2.06-9.13 0-3.297-.687-6.29-2.06-8.98-1.34-2.724-3.249-4.876-5.728-6.457-2.478-1.58-5.291-2.37-8.44-2.37-2.947 0-5.66.756-8.138 2.27-2.479 1.513-4.455 3.631-5.929 6.355-1.44 2.69-2.16 5.751-2.16 9.181 0 3.296.67 6.323 2.01 9.08 1.373 2.724 3.282 4.894 5.727 6.508 2.478 1.614 5.308 2.42 8.49 2.42zm58.428 9.585c-5.158 0-9.797-1.194-13.916-3.582-4.086-2.388-7.284-5.667-9.596-9.837-2.277-4.204-3.416-8.928-3.416-14.175 0-5.38 1.172-10.14 3.517-14.276 2.378-4.17 5.61-7.398 9.696-9.685 4.086-2.287 8.658-3.43 13.715-3.43 5.124 0 9.73 1.16 13.816 3.48 4.12 2.32 7.351 5.566 9.696 9.736 2.345 4.17 3.516 8.895 3.516 14.175 0 5.247-1.155 9.971-3.466 14.175-2.311 4.204-5.526 7.5-9.646 9.888-4.086 2.354-8.724 3.531-13.916 3.531zm0-9.585c3.182 0 5.995-.79 8.44-2.371 2.478-1.614 4.388-3.783 5.728-6.507 1.373-2.758 2.059-5.802 2.059-9.13 0-3.297-.686-6.29-2.059-8.98-1.34-2.724-3.25-4.876-5.728-6.457-2.478-1.58-5.291-2.37-8.44-2.37-2.947 0-5.66.756-8.138 2.27-2.479 1.513-4.455 3.631-5.929 6.355-1.44 2.69-2.16 5.751-2.16 9.181 0 3.296.669 6.323 2.009 9.08 1.374 2.724 3.283 4.894 5.728 6.508 2.478 1.614 5.308 2.42 8.49 2.42zm56.92 31.327c-5.76 0-10.516-1.211-14.267-3.632-3.718-2.422-6.816-6.273-9.294-11.552l9.444-4.187c1.575 2.993 3.483 5.33 5.728 7.011 2.244 1.715 4.99 2.573 8.239 2.573 4.957 0 8.725-1.446 11.304-4.338 2.612-2.892 3.918-6.928 3.918-12.107v-4.691h-.351c-.804 1.21-1.943 2.438-3.417 3.682-1.473 1.211-3.282 2.253-5.426 3.128-2.143.84-4.488 1.261-7.033 1.261-5.057 0-9.445-1.127-13.162-3.38-3.718-2.253-6.565-5.38-8.541-9.383-1.976-4.035-2.964-8.66-2.964-13.872 0-5.145.988-9.753 2.964-13.822 1.976-4.103 4.789-7.315 8.44-9.635 3.684-2.32 7.971-3.48 12.861-3.48 3.484 0 6.682.689 9.596 2.068 2.914 1.378 5.191 3.346 6.832 5.902h.201v-6.407h10.45v45.502c0 19.572-8.507 29.359-25.522 29.359zm0-32.84c3.082 0 5.761-.723 8.039-2.17 2.277-1.445 4.019-3.447 5.225-6.002 1.205-2.59 1.808-5.532 1.808-8.828 0-3.363-.603-6.306-1.808-8.828-1.206-2.556-2.948-4.523-5.225-5.902-2.278-1.379-4.941-2.068-7.988-2.068-2.981 0-5.61.706-7.888 2.118-2.277 1.38-4.052 3.347-5.325 5.902-1.273 2.556-1.909 5.499-1.909 8.829 0 3.497.636 6.523 1.909 9.08 1.306 2.555 3.098 4.506 5.376 5.851 2.277 1.345 4.873 2.018 7.786 2.018zm33.61 9.433V31.06h10.953v72.237h-10.953zm43.306 1.564c-7.703 0-14.083-2.489-19.141-7.466-5.023-4.977-7.536-11.535-7.536-19.673 0-7.97 2.429-14.529 7.285-19.674 4.89-5.18 11.27-7.769 19.141-7.769 5.158 0 9.612 1.329 13.363 3.985 3.785 2.657 6.766 6.81 8.943 12.46.201.572.385 1.16.553 1.766.167.605.318 1.294.452 2.068l-41.196 17.555-2.863-8.323 34.111-14.529-.954 4.591c-1.273-3.599-3.048-6.205-5.325-7.819-2.244-1.614-4.74-2.421-7.486-2.421-4.689 0-8.423 1.614-11.203 4.842-2.78 3.195-4.17 7.399-4.17 12.612 0 4.91 1.608 9.097 4.823 12.56 3.216 3.464 7.117 5.196 11.706 5.196 2.746 0 5.308-.689 7.686-2.068s4.455-3.313 6.23-5.801l8.139 5.347c-2.278 3.767-5.393 6.81-9.345 9.131-3.952 2.286-8.356 3.43-13.213 3.43z" fill="#212226"/><mask id="b" style="mask-type:luminance" maskUnits="userSpaceOnUse" x="0" y="13" width="108" height="109"><path d="M107.914 13H0v108.356h107.914V13z" fill="#fff"/></mask><g mask="url(#b)"><path d="M61.834 74.447c-3.838-2.663-3.89-8.34-.1-11.072l31.004-22.358c4.462-3.218 10.679-.022 10.679 5.494v43.882c0 5.46-6.105 8.668-10.578 5.564l-31.005-21.51z" fill="url(#c)"/><path d="M4.496 53.069c0-13.715 11.072-24.832 24.73-24.832h35.972c6.208 0 11.24 5.053 11.24 11.287V94.83c0 6.233-5.032 11.287-11.24 11.287h-49.46c-6.209 0-11.242-5.054-11.242-11.287V53.068z" fill="url(#d)"/><mask id="e" style="mask-type:luminance" maskUnits="userSpaceOnUse" x="4" y="28" width="73" height="79"><path d="M4.496 53.069c0-13.715 11.072-24.832 24.73-24.832h35.972c6.208 0 11.24 5.053 11.24 11.287V94.83c0 6.233-5.032 11.287-11.24 11.287h-49.46c-6.209 0-11.242-5.054-11.242-11.287V53.068z" fill="#fff"/></mask><g mask="url(#e)"><path d="M41.539 68.982l61.825-35.666v69.98L41.539 68.982z" fill="url(#g)" filter="url(#f)"/></g><path d="M21.358 97.088c4.346 0 7.869-3.537 7.869-7.9 0-4.364-3.523-7.901-7.87-7.901-4.345 0-7.868 3.537-7.868 7.9 0 4.364 3.523 7.901 7.869 7.901z" fill="#fff"/></g></g><defs><filter id="f" x="13.539" y="5.316" width="117.826" height="125.98" filterUnits="userSpaceOnUse" color-interpolation-filters="sRGB"><feFlood flood-opacity="0" result="BackgroundImageFix"/><feBlend in="SourceGraphic" in2="BackgroundImageFix" result="shape"/><feGaussianBlur stdDeviation="14" result="effect1_foregroundBlur_48_62"/></filter><linearGradient id="c" x1="72.392" y1="71.941" x2="127.698" y2="71.941" gradientUnits="userSpaceOnUse"><stop stop-color="#F6A100"/><stop offset="1" stop-color="#FFBE00"/></linearGradient><radialGradient id="d" cx="0" cy="0" r="1" gradientUnits="userSpaceOnUse" gradientTransform="matrix(-89.7734 0 0 -76.6689 90.11 67.177)"><stop offset=".15" stop-color="#FFE921"/><stop offset="1" stop-color="#FEC700"/></radialGradient><linearGradient id="g" x1="76.564" y1="64.538" x2="44.121" y2="64.464" gradientUnits="userSpaceOnUse"><stop offset=".15" stop-color="#FFB5E8"/><stop offset="1" stop-color="#FFDBF5" stop-opacity="0"/></linearGradient><clipPath id="a"><path fill="#fff" transform="translate(0 13)" d="M0 0h702v114H0z"/></clipPath></defs></svg>